HIERARCHY
ROOT Hips
{
	OFFSET 0.000000 35.082581 0.000000
	CHANNELS 6 Xposition Yposition Zposition Xrotation Yrotation Zrotation 
	JOINT Spine
	{
		OFFSET 0.000000 6.876099 0.125700
		CHANNELS 3 Xrotation Yrotation Zrotation
		JOINT Spine1
		{
			OFFSET 0.000000 5.730043 0.104720
			CHANNELS 3 Xrotation Yrotation Zrotation
			JOINT Spine1_split
			{
				OFFSET 0.000000 5.730043 0.104720
				CHANNELS 3 Xrotation Yrotation Zrotation
				JOINT Spine2
				{
					OFFSET 0.000000 5.730043 0.104720
					CHANNELS 3 Xrotation Yrotation Zrotation
					JOINT Neck
					{
						OFFSET 0.000000 10.314075 0.188496
						CHANNELS 3 Xrotation Yrotation Zrotation
						JOINT Head
						{
							OFFSET 0.000000 7.643700 -2.377400
							CHANNELS 3 Xrotation Yrotation Zrotation
							JOINT HeadTop_End
							{
								OFFSET 0.000000 43.788605 -13.619600
								CHANNELS 3 Xrotation Yrotation Zrotation
								End Site
								{
									OFFSET 0.000000 0.000000 0.000000
								}
							}
						}
					}
					JOINT LeftShoulder
					{
						OFFSET 2.196100 4.412489 0.087492
						CHANNELS 3 Xrotation Yrotation Zrotation
						JOINT LeftShoulder_split
						{
							OFFSET 2.196100 4.412489 0.087492
							CHANNELS 3 Xrotation Yrotation Zrotation
							JOINT LeftArm
							{
								OFFSET 8.771219 -2.981674 -0.026999
								CHANNELS 3 Xrotation Yrotation Zrotation
								JOINT LeftForeArm
								{
									OFFSET 8.512804 0.000000 -0.000000
									CHANNELS 3 Xrotation Yrotation Zrotation
									JOINT LeftHand
									{
										OFFSET 18.484802 0.000000 -0.000000
										CHANNELS 3 Xrotation Yrotation Zrotation
										JOINT LeftHandThumb1
										{
											OFFSET 2.499420 -1.158070 2.653252
											CHANNELS 3 Xrotation Yrotation Zrotation
											JOINT LeftHandThumb2
											{
												OFFSET 2.370079 -1.368366 1.368366
												CHANNELS 3 Xrotation Yrotation Zrotation
												JOINT LeftHandThumb3
												{
													OFFSET 2.676727 -1.545410 1.545409
													CHANNELS 3 Xrotation Yrotation Zrotation
													JOINT LeftHandThumb4
													{
														OFFSET 1.692226 -0.977005 0.977007
														CHANNELS 3 Xrotation Yrotation Zrotation
														End Site
														{
															OFFSET 0.000000 0.000000 0.000000
														}
													}
												}
											}
										}
										JOINT LeftHandIndex1
										{
											OFFSET 7.924831 -0.457527 2.345128
											CHANNELS 3 Xrotation Yrotation Zrotation
											JOINT LeftHandIndex2
											{
												OFFSET 3.643303 0.000000 0.000000
												CHANNELS 3 Xrotation Yrotation Zrotation
												JOINT LeftHandIndex3
												{
													OFFSET 3.810799 0.000000 0.000000
													CHANNELS 3 Xrotation Yrotation Zrotation
													JOINT LeftHandIndex4
													{
														OFFSET 2.403702 0.000000 0.000000
														CHANNELS 3 Xrotation Yrotation Zrotation
														End Site
														{
															OFFSET 0.000000 0.000000 0.000000
														}
													}
												}
											}
										}
										JOINT LeftHandMiddle1
										{
											OFFSET 8.563995 0.000000 -0.000000
											CHANNELS 3 Xrotation Yrotation Zrotation
											JOINT LeftHandMiddle2
											{
												OFFSET 3.861618 0.000000 0.000000
												CHANNELS 3 Xrotation Yrotation Zrotation
												JOINT LeftHandMiddle3
												{
													OFFSET 3.701603 0.000000 0.000000
													CHANNELS 3 Xrotation Yrotation Zrotation
													JOINT LeftHandMiddle4
													{
														OFFSET 2.322544 0.000000 0.000000
														CHANNELS 3 Xrotation Yrotation Zrotation
														End Site
														{
															OFFSET 0.000000 0.000000 0.000000
														}
													}
												}
											}
										}
										JOINT LeftHandRing1
										{
											OFFSET 8.426460 -0.424637 -3.286992
											CHANNELS 3 Xrotation Yrotation Zrotation
											JOINT LeftHandRing2
											{
												OFFSET 3.126408 0.000000 0.000000
												CHANNELS 3 Xrotation Yrotation Zrotation
												JOINT LeftHandRing3
												{
													OFFSET 3.085026 0.000000 0.000000
													CHANNELS 3 Xrotation Yrotation Zrotation
													JOINT LeftHandRing4
													{
														OFFSET 1.644005 0.000000 0.000000
														CHANNELS 3 Xrotation Yrotation Zrotation
														End Site
														{
															OFFSET 0.000000 0.000000 0.000000
														}
													}
												}
											}
										}
									}
								}
							}
						}
					}
					JOINT RightShoulder
					{
						OFFSET -2.196100 4.412496 0.070690
						CHANNELS 3 Xrotation Yrotation Zrotation
						JOINT RightShoulder_split
						{
							OFFSET -2.196100 4.412496 0.070690
							CHANNELS 3 Xrotation Yrotation Zrotation
							JOINT RightArm
							{
								OFFSET -8.771282 -2.981682 -0.094208
								CHANNELS 3 Xrotation Yrotation Zrotation
								JOINT RightForeArm
								{
									OFFSET -8.494598 0.000000 0.000000
									CHANNELS 3 Xrotation Yrotation Zrotation
									JOINT RightHand
									{
										OFFSET -18.483803 0.000000 0.000001
										CHANNELS 3 Xrotation Yrotation Zrotation
										JOINT RightHandThumb1
										{
											OFFSET -2.527351 -1.008072 2.575253
											CHANNELS 3 Xrotation Yrotation Zrotation
											JOINT RightHandThumb2
											{
												OFFSET -2.321518 -1.340328 1.340329
												CHANNELS 3 Xrotation Yrotation Zrotation
												JOINT RightHandThumb3
												{
													OFFSET -2.657753 -1.534454 1.534455
													CHANNELS 3 Xrotation Yrotation Zrotation
													JOINT RightHandThumb4
													{
														OFFSET -1.807510 -1.043568 1.043567
														CHANNELS 3 Xrotation Yrotation Zrotation
														End Site
														{
															OFFSET 0.000000 0.000000 0.000000
														}
													}
												}
											}
										}
										JOINT RightHandIndex1
										{
											OFFSET -8.811420 0.015533 2.887987
											CHANNELS 3 Xrotation Yrotation Zrotation
											JOINT RightHandIndex2
											{
												OFFSET -3.537502 0.000000 0.000000
												CHANNELS 3 Xrotation Yrotation Zrotation
												JOINT RightHandIndex3
												{
													OFFSET -3.356201 0.000000 0.000000
													CHANNELS 3 Xrotation Yrotation Zrotation
													JOINT RightHandIndex4
													{
														OFFSET -1.933098 0.000000 0.000000
														CHANNELS 3 Xrotation Yrotation Zrotation
														End Site
														{
															OFFSET 0.000000 0.000000 0.000000
														}
													}
												}
											}
										}
										JOINT RightHandMiddle1
										{
											OFFSET -8.178135 0.000000 0.000000
											CHANNELS 3 Xrotation Yrotation Zrotation
											JOINT RightHandMiddle2
											{
												OFFSET -3.901302 0.000000 0.000000
												CHANNELS 3 Xrotation Yrotation Zrotation
												JOINT RightHandMiddle3
												{
													OFFSET -3.909599 0.000000 0.000000
													CHANNELS 3 Xrotation Yrotation Zrotation
													JOINT RightHandMiddle4
													{
														OFFSET -2.376003 0.000000 0.000000
														CHANNELS 3 Xrotation Yrotation Zrotation
														End Site
														{
															OFFSET 0.000000 0.000000 0.000000
														}
													}
												}
											}
										}
										JOINT RightHandRing1
										{
											OFFSET -7.559013 0.014137 -2.865403
											CHANNELS 3 Xrotation Yrotation Zrotation
											JOINT RightHandRing2
											{
												OFFSET -3.449306 0.000000 0.000000
												CHANNELS 3 Xrotation Yrotation Zrotation
												JOINT RightHandRing3
												{
													OFFSET -3.362106 0.000000 0.000000
													CHANNELS 3 Xrotation Yrotation Zrotation
													JOINT RightHandRing4
													{
														OFFSET -2.076401 0.000000 0.000000
														CHANNELS 3 Xrotation Yrotation Zrotation
														End Site
														{
															OFFSET 0.000000 0.000000 0.000000
														}
													}
												}
											}
										}
									}
								}
							}
						}
					}
				}
			}
		}
	}
	JOINT LeftUpLeg
	{
		OFFSET 10.205400 -3.823500 0.155100
		CHANNELS 3 Xrotation Yrotation Zrotation
		JOINT LeftLeg
		{
			OFFSET 0.708757 -12.982077 0.567790
			CHANNELS 3 Xrotation Yrotation Zrotation
			JOINT LeftFoot
			{
				OFFSET -0.708756 -10.717838 -2.184338
				CHANNELS 3 Xrotation Yrotation Zrotation
				JOINT LeftToeBase
				{
					OFFSET 0.108149 -7.191104 7.560241
					CHANNELS 3 Xrotation Yrotation Zrotation
					JOINT LeftToe_End
					{
						OFFSET 0.070230 0.081724 4.490308
						CHANNELS 3 Xrotation Yrotation Zrotation
						End Site
						{
							OFFSET 0.000000 0.000000 0.000000
						}
					}
				}
			}
		}
	}
	JOINT RightUpLeg
	{
		OFFSET -10.205400 -3.823500 0.005500
		CHANNELS 3 Xrotation Yrotation Zrotation
		JOINT RightLeg
		{
			OFFSET -0.708756 -12.982134 0.610632
			CHANNELS 3 Xrotation Yrotation Zrotation
			JOINT RightFoot
			{
				OFFSET 0.708754 -10.717769 -1.945823
				CHANNELS 3 Xrotation Yrotation Zrotation
				JOINT RightToeBase
				{
					OFFSET -0.108140 -7.191069 7.372968
					CHANNELS 3 Xrotation Yrotation Zrotation
					JOINT RightToe_End
					{
						OFFSET -0.070227 0.081735 4.479403
						CHANNELS 3 Xrotation Yrotation Zrotation
						End Site
						{
							OFFSET 0.000000 0.000000 0.000000
						}
					}
				}
			}
		}
	}
}
MOTION
Frames: 4
Frame Time: 0.016667
23.365089 27.030273 102.157021 0.966321 27.512034 -12.958754 4.322542 -2.331622 -3.448788 3.685480 -1.693000 1.426702 0.000000 0.000000 0.000000 3.657015 -1.820087 1.396204 0.856921 2.472376 0.809331 -13.888070 30.928586 5.475026 0.000000 0.000002 -0.000000 0.537705 -0.925226 -8.721396 0.000000 0.000000 0.000000 28.704789 -17.140804 -55.244342 0.000003 -63.812019 0.000016 -14.162590 -33.316239 32.504054 5.358050 -0.141373 9.666165 3.545748 27.155816 3.560559 3.579366 15.544288 0.630989 -0.000000 0.000001 0.000001 -1.578838 0.825920 -19.703501 0.405078 2.871002 -21.069219 0.009616 -0.615547 3.987645 0.000001 -0.000002 -0.000001 0.409492 7.162247 -25.647937 0.416497 2.993237 -22.185332 0.003738 -0.023807 3.007762 -0.000000 0.000000 0.000000 2.386864 10.570845 -32.882371 0.471661 2.115272 -18.421993 0.064941 0.187429 -1.985601 0.000001 -0.000002 0.000001 0.815841 -4.239259 12.336018 0.000000 0.000000 0.000000 15.586526 20.224410 47.923309 -0.000466 92.611717 0.000373 -14.992153 28.644000 -6.764685 0.789343 -8.211542 -4.825389 0.020105 -13.361250 -9.371026 3.749498 -15.817799 -0.052388 0.000004 0.000003 0.000001 -1.070500 -2.247352 17.231273 0.405435 -2.871972 21.079304 -0.189683 0.296870 8.932124 -0.000000 -0.000000 -0.000000 0.438990 -7.256191 26.595152 0.417459 -2.995674 22.211557 0.081196 -1.101473 9.870311 -0.000000 0.000003 -0.000001 2.698244 -11.184219 32.166107 0.472425 -2.116949 18.440370 -0.173560 0.866927 9.714782 -0.000000 0.000001 -0.000000 -26.510305 16.978841 -5.573942 123.695545 15.614053 3.371584 -24.061510 0.094993 12.289923 -0.665712 0.000013 0.000001 0.000000 0.000000 0.000000 -43.878242 5.388695 -3.408044 58.169641 8.439639 0.349056 -18.794901 0.456955 14.873516 -4.331793 0.000025 -0.000002 -0.000001 0.000002 0.000000 
24.701181 27.155582 104.076363 0.514964 28.427664 -13.309748 5.193166 -0.898887 -3.135729 4.311017 -0.536963 1.522724 0.000000 0.000000 0.000000 4.300141 -0.688782 1.521628 0.463912 2.096605 0.947768 -14.996442 28.403016 5.305054 -0.000000 -0.000000 0.000000 0.523708 -0.270278 -7.835233 0.000000 0.000000 0.000000 34.348560 -17.343305 -56.852159 0.000034 -59.199319 0.000032 -16.618904 -33.493076 29.916795 5.358049 -0.141379 9.666161 3.545749 27.155818 3.560563 3.579365 15.544285 0.630986 0.000001 -0.000002 -0.000000 -1.578841 0.825919 -19.703501 0.405081 2.871010 -21.069223 0.009618 -0.615553 3.987645 -0.000001 -0.000005 -0.000001 0.409490 7.162244 -25.647939 0.416496 2.993237 -22.185337 0.003741 -0.023815 3.007763 0.000002 0.000002 -0.000000 2.386862 10.570842 -32.882375 0.471661 2.115273 -18.421990 0.064938 0.187431 -1.985600 -0.000002 -0.000000 0.000001 0.730132 -2.285039 12.250323 0.000000 0.000000 0.000000 5.243287 22.564741 51.239430 -0.000458 93.514927 0.000391 -16.491826 27.969630 -4.873440 0.789338 -8.211544 -4.825396 0.020112 -13.361246 -9.371023 3.749504 -15.817805 -0.052391 0.000005 -0.000002 -0.000004 -1.070500 -2.247353 17.231264 0.405437 -2.871972 21.079299 -0.189690 0.296871 8.932122 -0.000002 0.000000 0.000000 0.438987 -7.256195 26.595148 0.417459 -2.995673 22.211555 0.081194 -1.101473 9.870314 0.000001 0.000001 0.000000 2.698242 -11.184222 32.166100 0.472426 -2.116950 18.440367 -0.173560 0.866924 9.714780 0.000000 -0.000000 0.000001 -52.233513 19.033825 -1.077190 126.547341 17.322642 3.807808 -13.233953 -0.711619 14.539598 -6.730759 -0.621997 6.281965 -0.000003 -0.000002 0.000002 -36.451347 5.213389 -3.347151 59.830995 8.521542 0.519332 -26.577820 -0.724034 12.703446 -4.695277 0.000035 0.000007 0.000000 -0.000002 -0.000000 
26.117165 26.958069 106.166611 0.143833 29.003070 -14.150426 5.639221 0.404470 -1.964176 4.651099 0.654912 1.633855 0.000000 0.000000 0.000000 4.657233 0.491974 1.673787 0.396496 1.761077 0.948529 -15.762642 26.254663 5.119163 -0.000000 -0.000001 0.000001 0.472292 0.823558 -6.563710 0.000000 0.000000 0.000000 41.287028 -17.715620 -58.148693 0.000034 -58.979838 0.000049 -18.820690 -33.533466 26.792956 5.358050 -0.141374 9.666168 3.545749 27.155818 3.560565 3.579370 15.544288 0.630985 -0.000005 -0.000000 -0.000002 -1.578837 0.825930 -19.703499 0.405079 2.871006 -21.069214 0.009616 -0.615553 3.987645 -0.000002 0.000001 -0.000000 0.409492 7.162250 -25.647936 0.416497 2.993236 -22.185336 0.003744 -0.023815 3.007763 -0.000001 -0.000001 -0.000001 2.386863 10.570853 -32.882371 0.471661 2.115269 -18.421993 0.064942 0.187429 -1.985605 0.000003 -0.000001 0.000002 0.625959 0.265405 11.023060 0.000000 0.000000 0.000000 -6.297828 23.802337 54.826902 0.000001 96.646972 -0.000030 -19.103252 24.520611 -3.410980 0.789343 -8.211544 -4.825387 0.020104 -13.361243 -9.371022 3.749504 -15.817805 -0.052392 0.000003 0.000001 -0.000002 -1.070499 -2.247351 17.231270 0.405436 -2.871970 21.079299 -0.189685 0.296870 8.932121 -0.000002 0.000000 0.000000 0.438990 -7.256191 26.595157 0.417456 -2.995674 22.211553 0.081193 -1.101474 9.870313 0.000000 -0.000000 -0.000001 2.698241 -11.184218 32.166103 0.472428 -2.116950 18.440368 -0.173556 0.866925 9.714781 0.000001 0.000000 0.000001 -76.108825 17.665031 3.269609 122.996325 17.606565 3.576151 0.968919 -0.685341 18.321648 -15.339638 -1.331971 5.360715 -0.000006 0.000003 -0.000003 -28.565907 4.284486 -2.680512 61.526638 8.110950 0.572297 -35.335478 -1.013640 9.608305 -5.746735 0.000069 0.000000 0.000001 0.000005 0.000001 
26.117165 26.958069 106.166611 0.143833 29.003070 -14.150426 5.639221 0.404470 -1.964176 4.651099 0.654912 1.633855 0.000000 0.000000 0.000000 4.657233 0.491974 1.673787 0.396496 1.761077 0.948529 -15.762642 26.254663 5.119163 -0.000000 -0.000001 0.000001 0.472292 0.823558 -6.563710 0.000000 0.000000 0.000000 41.287028 -17.715620 -58.148693 0.000034 -58.979838 0.000049 -18.820690 -33.533466 26.792956 5.358050 -0.141374 9.666168 3.545749 27.155818 3.560565 3.579370 15.544288 0.630985 -0.000005 -0.000000 -0.000002 -1.578837 0.825930 -19.703499 0.405079 2.871006 -21.069214 0.009616 -0.615553 3.987645 -0.000002 0.000001 -0.000000 0.409492 7.162250 -25.647936 0.416497 2.993236 -22.185336 0.003744 -0.023815 3.007763 -0.000001 -0.000001 -0.000001 2.386863 10.570853 -32.882371 0.471661 2.115269 -18.421993 0.064942 0.187429 -1.985605 0.000003 -0.000001 0.000002 0.625959 0.265405 11.023060 0.000000 0.000000 0.000000 -6.297828 23.802337 54.826902 0.000001 96.646972 -0.000030 -19.103252 24.520611 -3.410980 0.789343 -8.211544 -4.825387 0.020104 -13.361243 -9.371022 3.749504 -15.817805 -0.052392 0.000003 0.000001 -0.000002 -1.070499 -2.247351 17.231270 0.405436 -2.871970 21.079299 -0.189685 0.296870 8.932121 -0.000002 0.000000 0.000000 0.438990 -7.256191 26.595157 0.417456 -2.995674 22.211553 0.081193 -1.101474 9.870313 0.000000 -0.000000 -0.000001 2.698241 -11.184218 32.166103 0.472428 -2.116950 18.440368 -0.173556 0.866925 9.714781 0.000001 0.000000 0.000001 -76.108825 17.665031 3.269609 122.996325 17.606565 3.576151 0.968919 -0.685341 18.321648 -15.339638 -1.331971 5.360715 -0.000006 0.000003 -0.000003 -28.565907 4.284486 -2.680512 61.526638 8.110950 0.572297 -35.335478 -1.013640 9.608305 -5.746735 0.000069 0.000000 0.000001 0.000005 0.000001 
